<mxfile host="Electron" agent="Mozilla/5.0 (Windows NT 10.0; Win64; x64) AppleWebKit/537.36 (KHTML, like Gecko) draw.io/25.0.2 Chrome/128.0.6613.186 Electron/32.2.5 Safari/537.36" version="25.0.2">
  <diagram name="第1頁" id="NLccynb52J0NcBIoasxA">
    <mxGraphModel dx="794" dy="519" grid="1" gridSize="10" guides="1" tooltips="1" connect="1" arrows="1" fold="1" page="1" pageScale="1" pageWidth="827" pageHeight="1169" math="0" shadow="0">
      <root>
        <mxCell id="0" />
        <mxCell id="1" parent="0" />
        <mxCell id="-kxNM1XWAF6nK2tHM18s-2" value="&lt;font style=&quot;font-size: 18px;&quot;&gt;&lt;b&gt;需求：敵人頭上顯示血量條&lt;/b&gt;&lt;/font&gt;" style="text;html=1;align=center;verticalAlign=middle;whiteSpace=wrap;rounded=0;fillColor=#f5f5f5;fontColor=#333333;strokeColor=#666666;" vertex="1" parent="1">
          <mxGeometry x="240" y="50" width="240" height="30" as="geometry" />
        </mxCell>
        <mxCell id="-kxNM1XWAF6nK2tHM18s-9" style="edgeStyle=orthogonalEdgeStyle;rounded=0;orthogonalLoop=1;jettySize=auto;html=1;entryX=0.5;entryY=0;entryDx=0;entryDy=0;" edge="1" parent="1" source="-kxNM1XWAF6nK2tHM18s-5" target="-kxNM1XWAF6nK2tHM18s-8">
          <mxGeometry relative="1" as="geometry" />
        </mxCell>
        <mxCell id="-kxNM1XWAF6nK2tHM18s-13" style="edgeStyle=orthogonalEdgeStyle;rounded=0;orthogonalLoop=1;jettySize=auto;html=1;exitX=0.5;exitY=1;exitDx=0;exitDy=0;entryX=0.5;entryY=0;entryDx=0;entryDy=0;" edge="1" parent="1" source="-kxNM1XWAF6nK2tHM18s-5" target="-kxNM1XWAF6nK2tHM18s-11">
          <mxGeometry relative="1" as="geometry" />
        </mxCell>
        <mxCell id="-kxNM1XWAF6nK2tHM18s-5" value="Widget Blueprint" style="rounded=1;whiteSpace=wrap;html=1;" vertex="1" parent="1">
          <mxGeometry x="100" y="130" width="120" height="40" as="geometry" />
        </mxCell>
        <mxCell id="-kxNM1XWAF6nK2tHM18s-8" value="ProgressBar" style="rounded=1;whiteSpace=wrap;html=1;" vertex="1" parent="1">
          <mxGeometry x="20" y="240" width="120" height="40" as="geometry" />
        </mxCell>
        <mxCell id="-kxNM1XWAF6nK2tHM18s-11" value="Function" style="rounded=1;whiteSpace=wrap;html=1;" vertex="1" parent="1">
          <mxGeometry x="180" y="240" width="120" height="40" as="geometry" />
        </mxCell>
        <mxCell id="-kxNM1XWAF6nK2tHM18s-18" style="edgeStyle=orthogonalEdgeStyle;rounded=0;orthogonalLoop=1;jettySize=auto;html=1;entryX=0.5;entryY=0;entryDx=0;entryDy=0;" edge="1" parent="1" source="-kxNM1XWAF6nK2tHM18s-14" target="-kxNM1XWAF6nK2tHM18s-17">
          <mxGeometry relative="1" as="geometry" />
        </mxCell>
        <mxCell id="-kxNM1XWAF6nK2tHM18s-14" value="C++" style="rounded=1;whiteSpace=wrap;html=1;" vertex="1" parent="1">
          <mxGeometry x="360" y="130" width="120" height="40" as="geometry" />
        </mxCell>
        <mxCell id="-kxNM1XWAF6nK2tHM18s-15" value="Blueprint" style="rounded=1;whiteSpace=wrap;html=1;" vertex="1" parent="1">
          <mxGeometry x="580" y="130" width="120" height="40" as="geometry" />
        </mxCell>
        <mxCell id="-kxNM1XWAF6nK2tHM18s-19" style="edgeStyle=orthogonalEdgeStyle;rounded=0;orthogonalLoop=1;jettySize=auto;html=1;entryX=1;entryY=0.5;entryDx=0;entryDy=0;" edge="1" parent="1" source="-kxNM1XWAF6nK2tHM18s-17" target="-kxNM1XWAF6nK2tHM18s-11">
          <mxGeometry relative="1" as="geometry" />
        </mxCell>
        <mxCell id="-kxNM1XWAF6nK2tHM18s-17" value="BroadCast&lt;div&gt;將血量資訊傳遞&lt;/div&gt;" style="rounded=1;whiteSpace=wrap;html=1;" vertex="1" parent="1">
          <mxGeometry x="360" y="240" width="120" height="40" as="geometry" />
        </mxCell>
        <mxCell id="-kxNM1XWAF6nK2tHM18s-37" value="新建血量條Widget Blueprint" style="text;html=1;align=left;verticalAlign=middle;whiteSpace=wrap;rounded=0;fillColor=#dae8fc;strokeColor=#6c8ebf;" vertex="1" parent="1">
          <mxGeometry x="130" y="330" width="160" height="30" as="geometry" />
        </mxCell>
        <mxCell id="-kxNM1XWAF6nK2tHM18s-38" value="加入血量WBP到Enemy Blueprint" style="text;html=1;align=left;verticalAlign=middle;whiteSpace=wrap;rounded=0;fillColor=#dae8fc;strokeColor=#6c8ebf;" vertex="1" parent="1">
          <mxGeometry x="130" y="410" width="180" height="30" as="geometry" />
        </mxCell>
        <mxCell id="-kxNM1XWAF6nK2tHM18s-44" style="edgeStyle=orthogonalEdgeStyle;rounded=0;orthogonalLoop=1;jettySize=auto;html=1;entryX=0;entryY=0.5;entryDx=0;entryDy=0;" edge="1" parent="1" source="-kxNM1XWAF6nK2tHM18s-39" target="-kxNM1XWAF6nK2tHM18s-42">
          <mxGeometry relative="1" as="geometry" />
        </mxCell>
        <mxCell id="-kxNM1XWAF6nK2tHM18s-46" style="edgeStyle=orthogonalEdgeStyle;rounded=0;orthogonalLoop=1;jettySize=auto;html=1;exitX=1;exitY=0.5;exitDx=0;exitDy=0;entryX=0;entryY=0.5;entryDx=0;entryDy=0;" edge="1" parent="1" source="-kxNM1XWAF6nK2tHM18s-39" target="-kxNM1XWAF6nK2tHM18s-45">
          <mxGeometry relative="1" as="geometry" />
        </mxCell>
        <mxCell id="-kxNM1XWAF6nK2tHM18s-48" style="edgeStyle=orthogonalEdgeStyle;rounded=0;orthogonalLoop=1;jettySize=auto;html=1;entryX=0;entryY=0.5;entryDx=0;entryDy=0;" edge="1" parent="1" source="-kxNM1XWAF6nK2tHM18s-39" target="-kxNM1XWAF6nK2tHM18s-47">
          <mxGeometry relative="1" as="geometry" />
        </mxCell>
        <mxCell id="-kxNM1XWAF6nK2tHM18s-39" value="新增WBP中更新Function" style="text;html=1;align=left;verticalAlign=middle;whiteSpace=wrap;rounded=0;fillColor=#dae8fc;strokeColor=#6c8ebf;" vertex="1" parent="1">
          <mxGeometry x="130" y="370" width="180" height="30" as="geometry" />
        </mxCell>
        <mxCell id="-kxNM1XWAF6nK2tHM18s-71" style="edgeStyle=orthogonalEdgeStyle;rounded=0;orthogonalLoop=1;jettySize=auto;html=1;entryX=0;entryY=0.5;entryDx=0;entryDy=0;" edge="1" parent="1" source="-kxNM1XWAF6nK2tHM18s-41" target="-kxNM1XWAF6nK2tHM18s-68">
          <mxGeometry relative="1" as="geometry" />
        </mxCell>
        <mxCell id="-kxNM1XWAF6nK2tHM18s-72" style="edgeStyle=orthogonalEdgeStyle;rounded=0;orthogonalLoop=1;jettySize=auto;html=1;exitX=1;exitY=0.5;exitDx=0;exitDy=0;entryX=0;entryY=0.5;entryDx=0;entryDy=0;" edge="1" parent="1" source="-kxNM1XWAF6nK2tHM18s-41" target="-kxNM1XWAF6nK2tHM18s-69">
          <mxGeometry relative="1" as="geometry" />
        </mxCell>
        <mxCell id="-kxNM1XWAF6nK2tHM18s-73" style="edgeStyle=orthogonalEdgeStyle;rounded=0;orthogonalLoop=1;jettySize=auto;html=1;exitX=1;exitY=0.5;exitDx=0;exitDy=0;entryX=0;entryY=0.5;entryDx=0;entryDy=0;" edge="1" parent="1" source="-kxNM1XWAF6nK2tHM18s-41" target="-kxNM1XWAF6nK2tHM18s-70">
          <mxGeometry relative="1" as="geometry" />
        </mxCell>
        <mxCell id="-kxNM1XWAF6nK2tHM18s-41" value="新增Enemy Widget Controller (C++)" style="text;html=1;align=left;verticalAlign=middle;whiteSpace=wrap;rounded=0;fillColor=#dae8fc;strokeColor=#6c8ebf;" vertex="1" parent="1">
          <mxGeometry x="130" y="450" width="210" height="30" as="geometry" />
        </mxCell>
        <mxCell id="-kxNM1XWAF6nK2tHM18s-42" value="UpdateSize" style="text;html=1;align=left;verticalAlign=middle;whiteSpace=wrap;rounded=0;fillColor=#dae8fc;strokeColor=#6c8ebf;" vertex="1" parent="1">
          <mxGeometry x="380" y="330" width="80" height="30" as="geometry" />
        </mxCell>
        <mxCell id="-kxNM1XWAF6nK2tHM18s-45" value="UpdateBrush" style="text;html=1;align=left;verticalAlign=middle;whiteSpace=wrap;rounded=0;fillColor=#dae8fc;strokeColor=#6c8ebf;" vertex="1" parent="1">
          <mxGeometry x="380" y="370" width="80" height="30" as="geometry" />
        </mxCell>
        <mxCell id="-kxNM1XWAF6nK2tHM18s-47" value="SetPercent" style="text;html=1;align=left;verticalAlign=middle;whiteSpace=wrap;rounded=0;fillColor=#dae8fc;strokeColor=#6c8ebf;" vertex="1" parent="1">
          <mxGeometry x="380" y="410" width="100" height="30" as="geometry" />
        </mxCell>
        <mxCell id="-kxNM1XWAF6nK2tHM18s-59" value="" style="html=1;verticalLabelPosition=bottom;labelBackgroundColor=#ffffff;verticalAlign=top;shadow=0;dashed=0;strokeWidth=2;shape=mxgraph.ios7.misc.check;strokeColor=#0080f0;" vertex="1" parent="1">
          <mxGeometry x="110" y="341" width="10" height="8" as="geometry" />
        </mxCell>
        <mxCell id="-kxNM1XWAF6nK2tHM18s-60" value="" style="html=1;verticalLabelPosition=bottom;labelBackgroundColor=#ffffff;verticalAlign=top;shadow=0;dashed=0;strokeWidth=2;shape=mxgraph.ios7.misc.check;strokeColor=#0080f0;" vertex="1" parent="1">
          <mxGeometry x="110" y="421" width="10" height="8" as="geometry" />
        </mxCell>
        <mxCell id="-kxNM1XWAF6nK2tHM18s-61" value="" style="html=1;verticalLabelPosition=bottom;labelBackgroundColor=#ffffff;verticalAlign=top;shadow=0;dashed=0;strokeWidth=2;shape=mxgraph.ios7.misc.check;strokeColor=#0080f0;" vertex="1" parent="1">
          <mxGeometry x="110" y="381" width="10" height="8" as="geometry" />
        </mxCell>
        <mxCell id="-kxNM1XWAF6nK2tHM18s-62" value="" style="html=1;verticalLabelPosition=bottom;labelBackgroundColor=#ffffff;verticalAlign=top;shadow=0;dashed=0;strokeWidth=2;shape=mxgraph.ios7.misc.check;strokeColor=#0080f0;" vertex="1" parent="1">
          <mxGeometry x="470" y="341" width="10" height="8" as="geometry" />
        </mxCell>
        <mxCell id="-kxNM1XWAF6nK2tHM18s-63" value="" style="html=1;verticalLabelPosition=bottom;labelBackgroundColor=#ffffff;verticalAlign=top;shadow=0;dashed=0;strokeWidth=2;shape=mxgraph.ios7.misc.check;strokeColor=#0080f0;" vertex="1" parent="1">
          <mxGeometry x="470" y="381" width="10" height="8" as="geometry" />
        </mxCell>
        <mxCell id="-kxNM1XWAF6nK2tHM18s-64" value="" style="html=1;verticalLabelPosition=bottom;labelBackgroundColor=#ffffff;verticalAlign=top;shadow=0;dashed=0;strokeWidth=2;shape=mxgraph.ios7.misc.check;strokeColor=#0080f0;" vertex="1" parent="1">
          <mxGeometry x="490" y="421" width="10" height="8" as="geometry" />
        </mxCell>
        <mxCell id="-kxNM1XWAF6nK2tHM18s-65" value="BroadCast 會讓多個收到的問題?" style="text;html=1;align=left;verticalAlign=middle;whiteSpace=wrap;rounded=0;fillColor=#fff2cc;strokeColor=#d6b656;" vertex="1" parent="1">
          <mxGeometry x="520" y="320" width="190" height="30" as="geometry" />
        </mxCell>
        <mxCell id="-kxNM1XWAF6nK2tHM18s-66" style="edgeStyle=orthogonalEdgeStyle;rounded=0;orthogonalLoop=1;jettySize=auto;html=1;exitX=0.5;exitY=1;exitDx=0;exitDy=0;" edge="1" parent="1" source="-kxNM1XWAF6nK2tHM18s-65" target="-kxNM1XWAF6nK2tHM18s-65">
          <mxGeometry relative="1" as="geometry" />
        </mxCell>
        <mxCell id="-kxNM1XWAF6nK2tHM18s-68" value="BroadcastInitialValues" style="text;html=1;align=left;verticalAlign=middle;whiteSpace=wrap;rounded=0;fillColor=#dae8fc;strokeColor=#6c8ebf;" vertex="1" parent="1">
          <mxGeometry x="380" y="460" width="130" height="30" as="geometry" />
        </mxCell>
        <mxCell id="-kxNM1XWAF6nK2tHM18s-69" value="BindCallbacksToDependencies" style="text;html=1;align=left;verticalAlign=middle;whiteSpace=wrap;rounded=0;fillColor=#dae8fc;strokeColor=#6c8ebf;" vertex="1" parent="1">
          <mxGeometry x="380" y="510" width="190" height="30" as="geometry" />
        </mxCell>
        <mxCell id="-kxNM1XWAF6nK2tHM18s-70" value="BroadcastEnemyAttributeInfo" style="text;html=1;align=left;verticalAlign=middle;whiteSpace=wrap;rounded=0;fillColor=#dae8fc;strokeColor=#6c8ebf;" vertex="1" parent="1">
          <mxGeometry x="380" y="560" width="190" height="30" as="geometry" />
        </mxCell>
        <mxCell id="-kxNM1XWAF6nK2tHM18s-74" value="定義BroadcastEnemyAttributeInfo 在 Blueprint的接收" style="text;html=1;align=left;verticalAlign=middle;whiteSpace=wrap;rounded=0;fillColor=#dae8fc;strokeColor=#6c8ebf;" vertex="1" parent="1">
          <mxGeometry x="130" y="670" width="300" height="30" as="geometry" />
        </mxCell>
        <mxCell id="-kxNM1XWAF6nK2tHM18s-75" value="呼叫WBP更新血量百分比" style="text;html=1;align=left;verticalAlign=middle;whiteSpace=wrap;rounded=0;fillColor=#dae8fc;strokeColor=#6c8ebf;" vertex="1" parent="1">
          <mxGeometry x="130" y="710" width="300" height="30" as="geometry" />
        </mxCell>
        <mxCell id="-kxNM1XWAF6nK2tHM18s-76" value="" style="html=1;verticalLabelPosition=bottom;labelBackgroundColor=#ffffff;verticalAlign=top;shadow=0;dashed=0;strokeWidth=2;shape=mxgraph.ios7.misc.check;strokeColor=#0080f0;" vertex="1" parent="1">
          <mxGeometry x="110" y="461" width="10" height="8" as="geometry" />
        </mxCell>
        <mxCell id="-kxNM1XWAF6nK2tHM18s-77" value="" style="html=1;verticalLabelPosition=bottom;labelBackgroundColor=#ffffff;verticalAlign=top;shadow=0;dashed=0;strokeWidth=2;shape=mxgraph.ios7.misc.check;strokeColor=#0080f0;" vertex="1" parent="1">
          <mxGeometry x="520" y="472" width="10" height="8" as="geometry" />
        </mxCell>
        <mxCell id="-kxNM1XWAF6nK2tHM18s-78" value="" style="html=1;verticalLabelPosition=bottom;labelBackgroundColor=#ffffff;verticalAlign=top;shadow=0;dashed=0;strokeWidth=2;shape=mxgraph.ios7.misc.check;strokeColor=#0080f0;" vertex="1" parent="1">
          <mxGeometry x="580" y="521" width="10" height="8" as="geometry" />
        </mxCell>
        <mxCell id="-kxNM1XWAF6nK2tHM18s-79" value="" style="html=1;verticalLabelPosition=bottom;labelBackgroundColor=#ffffff;verticalAlign=top;shadow=0;dashed=0;strokeWidth=2;shape=mxgraph.ios7.misc.check;strokeColor=#0080f0;" vertex="1" parent="1">
          <mxGeometry x="580" y="571" width="10" height="8" as="geometry" />
        </mxCell>
        <mxCell id="-kxNM1XWAF6nK2tHM18s-81" value="在藍圖中可取得Enemy Widget Controller" style="text;html=1;align=left;verticalAlign=middle;whiteSpace=wrap;rounded=0;fillColor=#dae8fc;strokeColor=#6c8ebf;" vertex="1" parent="1">
          <mxGeometry x="130" y="600" width="300" height="30" as="geometry" />
        </mxCell>
      </root>
    </mxGraphModel>
  </diagram>
</mxfile>
